<svg xmlns="http://www.w3.org/2000/svg" width="206" height="186" viewBox="58 44 206 186">
  <!-- Prismo filing a document in a collection. Drawn in the Prisma brand style (see README.md).
       Generated by generate.py; don't edit by hand. -->
  <defs>
    <!-- chrome -->
    <radialGradient id="chrome" cx="35%" cy="28%" r="78%">
      <stop offset="0" stop-color="#fbfcfe"/>
      <stop offset=".35" stop-color="#dfe5ec"/>
      <stop offset=".62" stop-color="#aeb8c6"/>
      <stop offset=".85" stop-color="#7c8797"/>
      <stop offset="1" stop-color="#5f6a79"/>
    </radialGradient>
    <radialGradient id="shine" cx="50%" cy="50%" r="50%">
      <stop offset="0" stop-color="#fff" stop-opacity=".75"/>
      <stop offset="1" stop-color="#fff" stop-opacity="0"/>
    </radialGradient>
    <linearGradient id="ear" x1="0" y1="0" x2="1" y2="1">
      <stop offset="0" stop-color="#eef1f5"/>
      <stop offset=".55" stop-color="#b3bcc8"/>
      <stop offset="1" stop-color="#7f8a99"/>
    </linearGradient>
    <linearGradient id="foot" x1="0" y1="0" x2="1" y2="0">
      <stop offset="0" stop-color="#8f9aa8"/>
      <stop offset=".35" stop-color="#e6eaf0"/>
      <stop offset="1" stop-color="#7c8797"/>
    </linearGradient>
    <linearGradient id="mitt" x1="0" y1="0" x2=".8" y2="1">
      <stop offset="0" stop-color="#fdfdfe"/>
      <stop offset=".55" stop-color="#cfd6df"/>
      <stop offset="1" stop-color="#8f9aa8"/>
    </linearGradient>
    <!-- the visor: three flat prism bands (never recoloured) -->
    <linearGradient id="visor" gradientUnits="userSpaceOnUse" x1="0" y1="-12" x2="0" y2="15">
      <stop offset="0" stop-color="#01D7E4"/><stop offset=".3333" stop-color="#01D7E4"/>
      <stop offset=".3333" stop-color="#F3C306"/><stop offset=".6667" stop-color="#F3C306"/>
      <stop offset=".6667" stop-color="#F34A60"/><stop offset="1" stop-color="#F34A60"/>
    </linearGradient>
    <linearGradient id="visorShade" x1="0" y1="0" x2="1" y2="0">
      <stop offset="0" stop-color="#121212" stop-opacity=".3"/>
      <stop offset=".22" stop-color="#121212" stop-opacity="0"/>
      <stop offset=".78" stop-color="#121212" stop-opacity="0"/>
      <stop offset="1" stop-color="#121212" stop-opacity=".3"/>
    </linearGradient>
    <!-- glass -->
    <linearGradient id="glass" x1="0" y1="0" x2="1" y2="1">
      <stop offset="0" stop-color="#ffffff"/>
      <stop offset="1" stop-color="#f1f4f8"/>
    </linearGradient>
    <linearGradient id="sweep" x1="0" y1="0" x2="1" y2="1">
      <stop offset="0" stop-color="#01D7E4"/>
      <stop offset=".5" stop-color="#F3C306"/>
      <stop offset="1" stop-color="#F34A60"/>
    </linearGradient>
    <linearGradient id="rim" x1="0" y1="0" x2=".7" y2=".7">
      <stop offset="0" stop-color="#fff" stop-opacity=".95"/>
      <stop offset="1" stop-color="#fff" stop-opacity="0"/>
    </linearGradient>
    <linearGradient id="prismEdge" x1="0" y1="0" x2="1" y2="0">
      <stop offset="0" stop-color="#01D7E4"/>
      <stop offset=".5" stop-color="#F3C306"/>
      <stop offset="1" stop-color="#F34A60"/>
    </linearGradient>
    <clipPath id="headClip"><circle cx="0" cy="0" r="35"/></clipPath>
    <clipPath id="visorClip"><path d="M-36 -12 Q0 -9 36 -12 L36 13 Q0 16 -36 13 Z"/></clipPath>
    <filter id="blur6" x="-50%" y="-50%" width="200%" height="200%"><feGaussianBlur stdDeviation="6"/></filter>
    <filter id="blur2" x="-50%" y="-50%" width="200%" height="200%"><feGaussianBlur stdDeviation="2.5"/></filter>
    <filter id="grain" x="0" y="0" width="100%" height="100%">
      <feTurbulence type="fractalNoise" baseFrequency=".9" numOctaves="2" stitchTiles="stitch"/>
      <feColorMatrix type="saturate" values="0"/>
    </filter>
    <filter id="soft" x="-80%" y="-80%" width="260%" height="280%">
      <feDropShadow dx="0" dy="6" stdDeviation="7" flood-color="#121212" flood-opacity=".14"/>
    </filter>
  </defs>
  <defs>
    <linearGradient id="mongodb-side" x1="0" y1="0" x2="1" y2="0">
      <stop offset="0" stop-color="#dfe4eb"/><stop offset="1" stop-color="#c3cad4"/>
    </linearGradient>
  </defs>
  <!-- The collection: a glass tray of documents -->
  <g filter="url(#soft)">
    <path d="M142 156 L186.72 130 H252.72 V180 H208 L142 206 Z" fill="#e4e9f0"/>
  </g>
  <path d="M142 156 L186.72 130 V180 L142 206 Z" fill="#d3d9e1"/>
  <path d="M142 156 L186.72 130 H252.72" fill="none" stroke="#fff" stroke-width="1.2" stroke-linejoin="round"/>
  <g transform="translate(190.56 89)" filter="url(#soft)">
      <rect x="0" y="0" width="46" height="58" rx="7" fill="url(#glass)"/>
      <rect x="0" y="0" width="46" height="58" rx="7" fill="url(#sweep)" fill-opacity=".07"/>
      <rect x=".75" y=".75" width="44.5" height="56.5" rx="6.25" fill="none" stroke="#e3e8ef" stroke-width="1.5"/>
      <path d="M12 10 Q9.4 10 9.4 13 V26.4 Q9.4 29.0 7 29.0 Q9.4 29.0 9.4 31.6 V45 Q9.4 48 12 48" fill="none" stroke="#aeb8c6" stroke-width="2.2" stroke-linecap="round" stroke-linejoin="round"/><path d="M34 10 Q36.6 10 36.6 13 V26.4 Q36.6 29.0 39 29.0 Q36.6 29.0 36.6 31.6 V45 Q36.6 48 34 48" fill="none" stroke="#aeb8c6" stroke-width="2.2" stroke-linecap="round" stroke-linejoin="round"/>
      <circle cx="16" cy="23.5" r="2.6" fill="#c6ccd6"/><rect x="21" y="20.5" width="12" height="6" rx="3" fill="#d3d9e1"/><circle cx="16" cy="34.5" r="2.6" fill="#c6ccd6"/><rect x="21" y="31.5" width="8" height="6" rx="3" fill="#d3d9e1"/>
  </g>
  <g transform="translate(178.52 96)" filter="url(#soft)">
      <rect x="0" y="0" width="46" height="58" rx="7" fill="url(#glass)"/>
      <rect x="0" y="0" width="46" height="58" rx="7" fill="url(#sweep)" fill-opacity=".07"/>
      <rect x=".75" y=".75" width="44.5" height="56.5" rx="6.25" fill="none" stroke="#e3e8ef" stroke-width="1.5"/>
      <path d="M12 10 Q9.4 10 9.4 13 V26.4 Q9.4 29.0 7 29.0 Q9.4 29.0 9.4 31.6 V45 Q9.4 48 12 48" fill="none" stroke="#aeb8c6" stroke-width="2.2" stroke-linecap="round" stroke-linejoin="round"/><path d="M34 10 Q36.6 10 36.6 13 V26.4 Q36.6 29.0 39 29.0 Q36.6 29.0 36.6 31.6 V45 Q36.6 48 34 48" fill="none" stroke="#aeb8c6" stroke-width="2.2" stroke-linecap="round" stroke-linejoin="round"/>
      <circle cx="16" cy="18" r="2.6" fill="#c6ccd6"/><rect x="21" y="15" width="8" height="6" rx="3" fill="#d3d9e1"/><circle cx="16" cy="29" r="2.6" fill="#c6ccd6"/><rect x="21" y="26" width="12" height="6" rx="3" fill="#d3d9e1"/><circle cx="16" cy="40" r="2.6" fill="#c6ccd6"/><rect x="21" y="37" width="10" height="6" rx="3" fill="#d3d9e1"/>
  </g>
  <g transform="translate(166.48 103)" filter="url(#soft)">
      <rect x="0" y="0" width="46" height="58" rx="7" fill="url(#glass)"/>
      <rect x="0" y="0" width="46" height="58" rx="7" fill="url(#sweep)" fill-opacity=".07"/>
      <rect x=".75" y=".75" width="44.5" height="56.5" rx="6.25" fill="none" stroke="#e3e8ef" stroke-width="1.5"/>
      <path d="M12 10 Q9.4 10 9.4 13 V26.4 Q9.4 29.0 7 29.0 Q9.4 29.0 9.4 31.6 V45 Q9.4 48 12 48" fill="none" stroke="#aeb8c6" stroke-width="2.2" stroke-linecap="round" stroke-linejoin="round"/><path d="M34 10 Q36.6 10 36.6 13 V26.4 Q36.6 29.0 39 29.0 Q36.6 29.0 36.6 31.6 V45 Q36.6 48 34 48" fill="none" stroke="#aeb8c6" stroke-width="2.2" stroke-linecap="round" stroke-linejoin="round"/>
      <circle cx="16" cy="12.5" r="2.6" fill="#c6ccd6"/><rect x="21" y="9.5" width="10" height="6" rx="3" fill="#d3d9e1"/><circle cx="16" cy="23.5" r="2.6" fill="#c6ccd6"/><rect x="21" y="20.5" width="6" height="6" rx="3" fill="#d3d9e1"/><circle cx="16" cy="34.5" r="2.6" fill="#c6ccd6"/><rect x="21" y="31.5" width="12" height="6" rx="3" fill="#d3d9e1"/><circle cx="16" cy="45.5" r="2.6" fill="#c6ccd6"/><rect x="21" y="42.5" width="8" height="6" rx="3" fill="#d3d9e1"/>
  </g>
  <g filter="url(#soft)">
    <path d="M208 156 L252.72 130 V180 L208 206 Z" fill="url(#mongodb-side)"/>
    <rect x="142" y="156" width="66" height="50" rx="4" fill="url(#glass)" stroke="#e3e8ef"/>
  </g>
  <rect x="142" y="156" width="66" height="50" rx="4" fill="url(#sweep)" fill-opacity=".1"/>
  <rect x="142.75" y="156.75" width="64.5" height="48.5" rx="3.25" fill="none" stroke="url(#rim)" stroke-width="1.5"/>
  <path d="M145 156 H208 L252.72 130" fill="none" stroke="url(#prismEdge)" stroke-width="1.5" stroke-linejoin="round"/>
  <!-- a label frame, as on a card-file box -->
  <rect x="158" y="169" width="34" height="13" rx="3.5" fill="#eef1f6" stroke="#d3d9e1" stroke-width="1.2"/>
  <rect x="164" y="173.5" width="22" height="4" rx="2" fill="#c6ccd6"/>

  <g transform="translate(110 100) rotate(3)" filter="url(#soft)">
    <!-- foot -->
    <path d="M-9 32 h18 l2.5 6 h-23 z" fill="url(#foot)"/>
    <ellipse cx="0" cy="38" rx="11.5" ry="1.6" fill="#6f7a89"/>
    <!-- ear cups -->
    <g>
      <ellipse cx="-35" cy="1" rx="8" ry="12" fill="url(#ear)" stroke="#fff" stroke-opacity=".8" stroke-width="1"/>
      <ellipse cx="-35" cy="1" rx="4.48" ry="9" fill="#c3cad4"/>
      <ellipse cx="35" cy="1" rx="5" ry="12" fill="url(#ear)" stroke="#fff" stroke-opacity=".8" stroke-width="1"/>
      <ellipse cx="35" cy="1" rx="2.8" ry="9" fill="#c3cad4"/>
    </g>
    <!-- head: chrome with cool and warm reflections -->
    <circle cx="0" cy="0" r="35" fill="url(#chrome)"/>
    <g clip-path="url(#headClip)"><g filter="url(#blur6)">
          <ellipse cx="-16" cy="-12" rx="22" ry="20" fill="#9fd6ff" fill-opacity=".28"/>
          <ellipse cx="20" cy="-8" rx="18" ry="22" fill="#f6c86a" fill-opacity=".32"/>
          <ellipse cx="0" cy="30" rx="26" ry="8" fill="#f2c66d" fill-opacity=".18"/>
    </g></g>
    <!-- visor -->
    <path d="M-36 -12 Q0 -9 36 -12 L36 13 Q0 16 -36 13 Z" fill="url(#visor)" clip-path="url(#headClip)"/>
    <path d="M-36 -12 Q0 -9 36 -12 L36 13 Q0 16 -36 13 Z" fill="url(#visorShade)" clip-path="url(#headClip)"/>
    <g clip-path="url(#visorClip)" opacity=".5"><g filter="url(#blur6)">
          <ellipse cx="-16" cy="-12" rx="22" ry="20" fill="#9fd6ff" fill-opacity=".28"/>
          <ellipse cx="20" cy="-8" rx="18" ry="22" fill="#f6c86a" fill-opacity=".32"/>
          <ellipse cx="0" cy="30" rx="26" ry="8" fill="#f2c66d" fill-opacity=".18"/>
    </g></g>
    <!-- hatch seam -->
    <path d="M-25 -26 L-21 -16 Q0 -10 21 -16 L25 -26" fill="none" stroke="#6d7787" stroke-width="1.2" stroke-linejoin="round" clip-path="url(#headClip)"/>
    <path d="M-24 -25 L-20.4 -15 Q0 -9 20.4 -15 L24 -25" fill="none" stroke="#fff" stroke-opacity=".35" stroke-width="1" clip-path="url(#headClip)"/>
    <!-- face -->
    <g transform="translate(5 0)">
      <path d="M-16 -5 q4 -3 8 -1" fill="none" stroke="#0e1014" stroke-width="1.6" stroke-linecap="round"/>
      <path d="M16 -8 q-4 -3 -8 -1" fill="none" stroke="#0e1014" stroke-width="1.6" stroke-linecap="round"/>
      <ellipse cx="-12" cy="2" rx="3.5" ry="5.6" fill="#0e1014"/>
      <ellipse cx="12" cy="2" rx="3.5" ry="5.6" fill="#0e1014"/>
      <ellipse cx="-13.2" cy="0" rx="1.1" ry="2" fill="#fff" fill-opacity=".5"/>
      <ellipse cx="10.8" cy="0" rx="1.1" ry="2" fill="#fff" fill-opacity=".5"/>
      <path d="M-7 16 Q0 22 8 16" fill="none" stroke="#1c1f26" stroke-width="1.6" stroke-linecap="round"/>
    </g>
    <!-- soft highlight and grain -->
    <ellipse cx="-14" cy="-18" rx="9" ry="6" fill="url(#shine)"/>
    <rect x="-35" y="-35" width="70" height="70" filter="url(#grain)" opacity=".06" clip-path="url(#headClip)"/>
  </g>

  <!-- the new document, lowered into the tray: one hand holds its top edge, the other carries
       its bottom corner (fingers behind, thumb in front) -->
  <path d="M185 77 l0 -10" stroke="#01D7E4" stroke-opacity=".55" stroke-width="2" stroke-linecap="round"/>
  <path d="M191 77 l0 -16" stroke="#F3C306" stroke-opacity=".55" stroke-width="2" stroke-linecap="round"/>
  <path d="M197 77 l0 -10" stroke="#F34A60" stroke-opacity=".55" stroke-width="2" stroke-linecap="round"/>
  <g transform="translate(173 79) rotate(84) scale(1.3)" filter="url(#soft)"><ellipse cx="-.5" cy="-6.8" rx="3.3" ry="2.4" transform="rotate(-30 -.5 -6.8)" fill="url(#mitt)" stroke="#8f9aa8" stroke-width=".6"/></g>
  <g transform="translate(165 145) rotate(-75) scale(1.3)" filter="url(#soft)"><rect x="3" y="-5.6" width="10.5" height="3.8" rx="1.9" fill="url(#mitt)" stroke="#8f9aa8" stroke-width=".6"/><path d="M8.6 -5.199999999999999v3" stroke="#121212" stroke-opacity=".3" stroke-width=".6"/><rect x="3" y="-1.9" width="10.5" height="3.8" rx="1.9" fill="url(#mitt)" stroke="#8f9aa8" stroke-width=".6"/><path d="M8.6 -1.5v3" stroke="#121212" stroke-opacity=".3" stroke-width=".6"/><rect x="3" y="1.8" width="10.5" height="3.8" rx="1.9" fill="url(#mitt)" stroke="#8f9aa8" stroke-width=".6"/><path d="M8.6 2.2v3" stroke="#121212" stroke-opacity=".3" stroke-width=".6"/><ellipse cx="0" cy="0" rx="7.5" ry="6.8" fill="url(#mitt)" stroke="#8f9aa8" stroke-width=".7"/></g>
  <g transform="translate(152 84) rotate(-3)" filter="url(#soft)">
      <rect x="0" y="0" width="46" height="58" rx="7" fill="url(#glass)"/>
      <rect x="0" y="0" width="46" height="58" rx="7" fill="url(#sweep)" fill-opacity=".2"/>
      <rect x=".75" y=".75" width="44.5" height="56.5" rx="6.25" fill="none" stroke="url(#prismEdge)" stroke-width="1.5"/>
      <path d="M12 10 Q9.4 10 9.4 13 V26.4 Q9.4 29.0 7 29.0 Q9.4 29.0 9.4 31.6 V45 Q9.4 48 12 48" fill="none" stroke="#6f7a89" stroke-width="2.2" stroke-linecap="round" stroke-linejoin="round"/><path d="M34 10 Q36.6 10 36.6 13 V26.4 Q36.6 29.0 39 29.0 Q36.6 29.0 36.6 31.6 V45 Q36.6 48 34 48" fill="none" stroke="#6f7a89" stroke-width="2.2" stroke-linecap="round" stroke-linejoin="round"/>
      <circle cx="16" cy="18" r="2.6" fill="#F3C306"/><rect x="21" y="15" width="12" height="6" rx="3" fill="#01D7E4"/><circle cx="16" cy="29" r="2.6" fill="#F3C306"/><rect x="21" y="26" width="8" height="6" rx="3" fill="#F34A60"/><circle cx="16" cy="40" r="2.6" fill="#F3C306"/><rect x="21" y="37" width="10" height="6" rx="3" fill="#01D7E4"/>
  </g>
  <g transform="translate(165 145) rotate(-75) scale(1.3)" filter="url(#soft)"><ellipse cx="-.5" cy="-6.8" rx="3.3" ry="2.4" transform="rotate(-30 -.5 -6.8)" fill="url(#mitt)" stroke="#8f9aa8" stroke-width=".6"/></g>
  <g transform="translate(173 79) rotate(84) scale(1.3)" filter="url(#soft)"><rect x="3" y="-5.6" width="10.5" height="3.8" rx="1.9" fill="url(#mitt)" stroke="#8f9aa8" stroke-width=".6"/><path d="M8.6 -5.199999999999999v3" stroke="#121212" stroke-opacity=".3" stroke-width=".6"/><rect x="3" y="-1.9" width="10.5" height="3.8" rx="1.9" fill="url(#mitt)" stroke="#8f9aa8" stroke-width=".6"/><path d="M8.6 -1.5v3" stroke="#121212" stroke-opacity=".3" stroke-width=".6"/><rect x="3" y="1.8" width="10.5" height="3.8" rx="1.9" fill="url(#mitt)" stroke="#8f9aa8" stroke-width=".6"/><path d="M8.6 2.2v3" stroke="#121212" stroke-opacity=".3" stroke-width=".6"/><ellipse cx="0" cy="0" rx="7.5" ry="6.8" fill="url(#mitt)" stroke="#8f9aa8" stroke-width=".7"/></g>
</svg>
