<svg xmlns="http://www.w3.org/2000/svg" width="230" height="200" viewBox="50 20 230 200">
  <!-- Prismo sliding a drive into a server. Drawn in the Prisma brand style (see README.md).
       Generated by generate.py; don't edit by hand. -->
  <defs>
    <!-- chrome -->
    <radialGradient id="chrome" cx="35%" cy="28%" r="78%">
      <stop offset="0" stop-color="#fbfcfe"/>
      <stop offset=".35" stop-color="#dfe5ec"/>
      <stop offset=".62" stop-color="#aeb8c6"/>
      <stop offset=".85" stop-color="#7c8797"/>
      <stop offset="1" stop-color="#5f6a79"/>
    </radialGradient>
    <radialGradient id="shine" cx="50%" cy="50%" r="50%">
      <stop offset="0" stop-color="#fff" stop-opacity=".75"/>
      <stop offset="1" stop-color="#fff" stop-opacity="0"/>
    </radialGradient>
    <linearGradient id="ear" x1="0" y1="0" x2="1" y2="1">
      <stop offset="0" stop-color="#eef1f5"/>
      <stop offset=".55" stop-color="#b3bcc8"/>
      <stop offset="1" stop-color="#7f8a99"/>
    </linearGradient>
    <linearGradient id="foot" x1="0" y1="0" x2="1" y2="0">
      <stop offset="0" stop-color="#8f9aa8"/>
      <stop offset=".35" stop-color="#e6eaf0"/>
      <stop offset="1" stop-color="#7c8797"/>
    </linearGradient>
    <linearGradient id="mitt" x1="0" y1="0" x2=".8" y2="1">
      <stop offset="0" stop-color="#fdfdfe"/>
      <stop offset=".55" stop-color="#cfd6df"/>
      <stop offset="1" stop-color="#8f9aa8"/>
    </linearGradient>
    <!-- the visor: three flat prism bands (never recoloured) -->
    <linearGradient id="visor" gradientUnits="userSpaceOnUse" x1="0" y1="-12" x2="0" y2="15">
      <stop offset="0" stop-color="#01D7E4"/><stop offset=".3333" stop-color="#01D7E4"/>
      <stop offset=".3333" stop-color="#F3C306"/><stop offset=".6667" stop-color="#F3C306"/>
      <stop offset=".6667" stop-color="#F34A60"/><stop offset="1" stop-color="#F34A60"/>
    </linearGradient>
    <linearGradient id="visorShade" x1="0" y1="0" x2="1" y2="0">
      <stop offset="0" stop-color="#121212" stop-opacity=".3"/>
      <stop offset=".22" stop-color="#121212" stop-opacity="0"/>
      <stop offset=".78" stop-color="#121212" stop-opacity="0"/>
      <stop offset="1" stop-color="#121212" stop-opacity=".3"/>
    </linearGradient>
    <!-- glass -->
    <linearGradient id="glass" x1="0" y1="0" x2="1" y2="1">
      <stop offset="0" stop-color="#ffffff"/>
      <stop offset="1" stop-color="#f1f4f8"/>
    </linearGradient>
    <linearGradient id="sweep" x1="0" y1="0" x2="1" y2="1">
      <stop offset="0" stop-color="#01D7E4"/>
      <stop offset=".5" stop-color="#F3C306"/>
      <stop offset="1" stop-color="#F34A60"/>
    </linearGradient>
    <linearGradient id="rim" x1="0" y1="0" x2=".7" y2=".7">
      <stop offset="0" stop-color="#fff" stop-opacity=".95"/>
      <stop offset="1" stop-color="#fff" stop-opacity="0"/>
    </linearGradient>
    <linearGradient id="prismEdge" x1="0" y1="0" x2="1" y2="0">
      <stop offset="0" stop-color="#01D7E4"/>
      <stop offset=".5" stop-color="#F3C306"/>
      <stop offset="1" stop-color="#F34A60"/>
    </linearGradient>
    <clipPath id="headClip"><circle cx="0" cy="0" r="35"/></clipPath>
    <clipPath id="visorClip"><path d="M-36 -12 Q0 -9 36 -12 L36 13 Q0 16 -36 13 Z"/></clipPath>
    <filter id="blur6" x="-50%" y="-50%" width="200%" height="200%"><feGaussianBlur stdDeviation="6"/></filter>
    <filter id="blur2" x="-50%" y="-50%" width="200%" height="200%"><feGaussianBlur stdDeviation="2.5"/></filter>
    <filter id="grain" x="0" y="0" width="100%" height="100%">
      <feTurbulence type="fractalNoise" baseFrequency=".9" numOctaves="2" stitchTiles="stitch"/>
      <feColorMatrix type="saturate" values="0"/>
    </filter>
    <filter id="soft" x="-80%" y="-80%" width="260%" height="280%">
      <feDropShadow dx="0" dy="6" stdDeviation="7" flood-color="#121212" flood-opacity=".14"/>
    </filter>
  </defs>
  <defs>
    <linearGradient id="mssql-side" x1="0" y1="0" x2="1" y2="0">
      <stop offset="0" stop-color="#dfe4eb"/><stop offset="1" stop-color="#c3cad4"/>
    </linearGradient>
    <linearGradient id="mssql-top" x1="0" y1="1" x2="0" y2="0">
      <stop offset="0" stop-color="#fdfdfe"/><stop offset="1" stop-color="#d3d9e1"/>
    </linearGradient>
    <linearGradient id="mssql-recess" x1="0" y1="0" x2="0" y2="1">
      <stop offset="0" stop-color="#6f7a89" stop-opacity=".75"/><stop offset="1" stop-color="#9aa3b1" stop-opacity=".6"/>
    </linearGradient>
  </defs>
  <!-- The server tower, with drive bays and status lights -->
  <g filter="url(#soft)">
    <path d="M146 44 L171.8 29 H279.8 L254 44 Z" fill="#f9fafc"/>
    <path d="M254 44 L279.8 29 V219 L254 234 Z" fill="url(#mssql-side)"/>
    <rect x="146" y="44" width="108" height="190" rx="6" fill="url(#glass)"/>
  </g>
  <rect x="146" y="44" width="108" height="190" rx="6" fill="url(#sweep)" fill-opacity=".08"/>
  <rect x="146.75" y="44.75" width="106.5" height="188.5" rx="5.25" fill="none" stroke="url(#rim)" stroke-width="1.5"/>
  <path d="M146 44 L171.8 29 H279.8" fill="none" stroke="#fff" stroke-opacity=".9" stroke-width="1.2"/>
  <rect x="156" y="58" width="88" height="26" rx="4" fill="#f4f6f9" stroke="#e1e6ee" stroke-width="1.2"/><rect x="162" y="68" width="29.92" height="6" rx="3" fill="#c6ccd6"/><path d="M200 63v16M205 63v16M210 63v16" stroke="#d3d9e1" stroke-width="1.5" stroke-linecap="round"/><circle cx="236" cy="71" r="2.6" fill="#01D7E4"/><circle cx="236" cy="71" r="5" fill="#01D7E4" fill-opacity=".22"/><rect x="156" y="124" width="88" height="26" rx="4" fill="#f4f6f9" stroke="#e1e6ee" stroke-width="1.2"/><rect x="162" y="134" width="29.92" height="6" rx="3" fill="#c6ccd6"/><path d="M200 129v16M205 129v16M210 129v16" stroke="#d3d9e1" stroke-width="1.5" stroke-linecap="round"/><circle cx="236" cy="137" r="2.6" fill="#F3C306"/><circle cx="236" cy="137" r="5" fill="#F3C306" fill-opacity=".22"/><rect x="156" y="157" width="88" height="26" rx="4" fill="#f4f6f9" stroke="#e1e6ee" stroke-width="1.2"/><rect x="162" y="167" width="29.92" height="6" rx="3" fill="#c6ccd6"/><path d="M200 162v16M205 162v16M210 162v16" stroke="#d3d9e1" stroke-width="1.5" stroke-linecap="round"/><circle cx="236" cy="170" r="2.6" fill="#01D7E4"/><circle cx="236" cy="170" r="5" fill="#01D7E4" fill-opacity=".22"/><rect x="156" y="190" width="88" height="26" rx="4" fill="#f4f6f9" stroke="#e1e6ee" stroke-width="1.2"/><rect x="162" y="200" width="29.92" height="6" rx="3" fill="#c6ccd6"/><path d="M200 195v16M205 195v16M210 195v16" stroke="#d3d9e1" stroke-width="1.5" stroke-linecap="round"/><circle cx="236" cy="203" r="2.6" fill="#F34A60"/><circle cx="236" cy="203" r="5" fill="#F34A60" fill-opacity=".22"/>
  <!-- the empty bay: a dark recess, with room around the sled going in -->
  <rect x="156" y="91" width="88" height="26" rx="4" fill="url(#mssql-recess)"/>

  <g transform="translate(98 82) rotate(4)" filter="url(#soft)">
    <!-- foot -->
    <path d="M-9 32 h18 l2.5 6 h-23 z" fill="url(#foot)"/>
    <ellipse cx="0" cy="38" rx="11.5" ry="1.6" fill="#6f7a89"/>
    <!-- ear cups -->
    <g>
      <ellipse cx="-35" cy="1" rx="8" ry="12" fill="url(#ear)" stroke="#fff" stroke-opacity=".8" stroke-width="1"/>
      <ellipse cx="-35" cy="1" rx="4.48" ry="9" fill="#c3cad4"/>
      <ellipse cx="35" cy="1" rx="5" ry="12" fill="url(#ear)" stroke="#fff" stroke-opacity=".8" stroke-width="1"/>
      <ellipse cx="35" cy="1" rx="2.8" ry="9" fill="#c3cad4"/>
    </g>
    <!-- head: chrome with cool and warm reflections -->
    <circle cx="0" cy="0" r="35" fill="url(#chrome)"/>
    <g clip-path="url(#headClip)"><g filter="url(#blur6)">
          <ellipse cx="-16" cy="-12" rx="22" ry="20" fill="#9fd6ff" fill-opacity=".28"/>
          <ellipse cx="20" cy="-8" rx="18" ry="22" fill="#f6c86a" fill-opacity=".32"/>
          <ellipse cx="0" cy="30" rx="26" ry="8" fill="#f2c66d" fill-opacity=".18"/>
    </g></g>
    <!-- visor -->
    <path d="M-36 -12 Q0 -9 36 -12 L36 13 Q0 16 -36 13 Z" fill="url(#visor)" clip-path="url(#headClip)"/>
    <path d="M-36 -12 Q0 -9 36 -12 L36 13 Q0 16 -36 13 Z" fill="url(#visorShade)" clip-path="url(#headClip)"/>
    <g clip-path="url(#visorClip)" opacity=".5"><g filter="url(#blur6)">
          <ellipse cx="-16" cy="-12" rx="22" ry="20" fill="#9fd6ff" fill-opacity=".28"/>
          <ellipse cx="20" cy="-8" rx="18" ry="22" fill="#f6c86a" fill-opacity=".32"/>
          <ellipse cx="0" cy="30" rx="26" ry="8" fill="#f2c66d" fill-opacity=".18"/>
    </g></g>
    <!-- hatch seam -->
    <path d="M-25 -26 L-21 -16 Q0 -10 21 -16 L25 -26" fill="none" stroke="#6d7787" stroke-width="1.2" stroke-linejoin="round" clip-path="url(#headClip)"/>
    <path d="M-24 -25 L-20.4 -15 Q0 -9 20.4 -15 L24 -25" fill="none" stroke="#fff" stroke-opacity=".35" stroke-width="1" clip-path="url(#headClip)"/>
    <!-- face -->
    <g transform="translate(5 0)">
      <path d="M-16 -5 q4 -3 8 -1" fill="none" stroke="#0e1014" stroke-width="1.6" stroke-linecap="round"/>
      <path d="M16 -8 q-4 -3 -8 -1" fill="none" stroke="#0e1014" stroke-width="1.6" stroke-linecap="round"/>
      <ellipse cx="-12" cy="6" rx="3.5" ry="5.6" fill="#0e1014"/>
      <ellipse cx="12" cy="6" rx="3.5" ry="5.6" fill="#0e1014"/>
      <ellipse cx="-13.2" cy="4" rx="1.1" ry="2" fill="#fff" fill-opacity=".5"/>
      <ellipse cx="10.8" cy="4" rx="1.1" ry="2" fill="#fff" fill-opacity=".5"/>
      <path d="M-7 16 Q0 22 8 16" fill="none" stroke="#1c1f26" stroke-width="1.6" stroke-linecap="round"/>
    </g>
    <!-- soft highlight and grain -->
    <ellipse cx="-14" cy="-18" rx="9" ry="6" fill="url(#shine)"/>
    <rect x="-35" y="-35" width="70" height="70" filter="url(#grain)" opacity=".06" clip-path="url(#headClip)"/>
  </g>

  <!-- the drive sled, sliding into the empty bay: one hand carries it from below (its thumb
       over the front), the other pushes its front -->
  <g transform="translate(188.16 142.0) rotate(-60) scale(1.3)" filter="url(#soft)"><rect x="3" y="-5.6" width="10.5" height="3.8" rx="1.9" fill="url(#mitt)" stroke="#8f9aa8" stroke-width=".6"/><path d="M8.6 -5.199999999999999v3" stroke="#121212" stroke-opacity=".3" stroke-width=".6"/><rect x="3" y="-1.9" width="10.5" height="3.8" rx="1.9" fill="url(#mitt)" stroke="#8f9aa8" stroke-width=".6"/><path d="M8.6 -1.5v3" stroke="#121212" stroke-opacity=".3" stroke-width=".6"/><rect x="3" y="1.8" width="10.5" height="3.8" rx="1.9" fill="url(#mitt)" stroke="#8f9aa8" stroke-width=".6"/><path d="M8.6 2.2v3" stroke="#121212" stroke-opacity=".3" stroke-width=".6"/><ellipse cx="0" cy="0" rx="7.5" ry="6.8" fill="url(#mitt)" stroke="#8f9aa8" stroke-width=".7"/></g>
  <g filter="url(#soft)">
    <path d="M120.16 115.0 L158 93 H242 L204.16 115.0 Z" fill="url(#mssql-top)"/>
    <path d="M204.16 115.0 L242 93 V115 L204.16 137.0 Z" fill="#cfd6df"/>
    <rect x="120.16" y="115.0" width="84" height="22" rx="4" fill="#e4e9f0"/>
    <rect x="120.16" y="115.0" width="84" height="22" rx="4" fill="url(#glass)"/>
  </g>
  <rect x="120.16" y="115.0" width="84" height="22" rx="4" fill="url(#sweep)" fill-opacity=".2"/>
  <rect x="120.91" y="115.75" width="82.5" height="20.5" rx="3.25" fill="none" stroke="url(#prismEdge)" stroke-width="1.5"/>
  <rect x="126.16" y="123" width="28.56" height="6" rx="3" fill="#F3C306"/><path d="M162.16 120.0v12M167.16 120.0v12M172.16 120.0v12" stroke="#d3d9e1" stroke-width="1.5" stroke-linecap="round"/><circle cx="196.16" cy="126" r="2.6" fill="#01D7E4"/><circle cx="196.16" cy="126" r="5" fill="#01D7E4" fill-opacity=".22"/>
  <g transform="translate(188.16 142.0) rotate(-60) scale(1.3)" filter="url(#soft)"><ellipse cx="-.5" cy="-6.8" rx="3.3" ry="2.4" transform="rotate(-30 -.5 -6.8)" fill="url(#mitt)" stroke="#8f9aa8" stroke-width=".6"/></g>
<g transform="translate(127.16 143) rotate(-30)">
  <path d="M0 -5 l-10 0" stroke="#01D7E4" stroke-opacity=".55" stroke-width="2" stroke-linecap="round"/>
  <path d="M0 0 l-16 0" stroke="#F3C306" stroke-opacity=".55" stroke-width="2" stroke-linecap="round"/>
  <path d="M0 5 l-10 0" stroke="#F34A60" stroke-opacity=".55" stroke-width="2" stroke-linecap="round"/>
  </g>
  <g transform="translate(124.16 124.0) rotate(-30) scale(1.3)" filter="url(#soft)"><rect x="3" y="-5.6" width="10.5" height="3.8" rx="1.9" fill="url(#mitt)" stroke="#8f9aa8" stroke-width=".6"/><path d="M8.6 -5.199999999999999v3" stroke="#121212" stroke-opacity=".3" stroke-width=".6"/><rect x="3" y="-1.9" width="10.5" height="3.8" rx="1.9" fill="url(#mitt)" stroke="#8f9aa8" stroke-width=".6"/><path d="M8.6 -1.5v3" stroke="#121212" stroke-opacity=".3" stroke-width=".6"/><rect x="3" y="1.8" width="10.5" height="3.8" rx="1.9" fill="url(#mitt)" stroke="#8f9aa8" stroke-width=".6"/><path d="M8.6 2.2v3" stroke="#121212" stroke-opacity=".3" stroke-width=".6"/><ellipse cx="0" cy="0" rx="7.5" ry="6.8" fill="url(#mitt)" stroke="#8f9aa8" stroke-width=".7"/><ellipse cx="-.5" cy="-6.8" rx="3.3" ry="2.4" transform="rotate(-30 -.5 -6.8)" fill="url(#mitt)" stroke="#8f9aa8" stroke-width=".6"/></g>
</svg>
