<svg width="1400" height="512" viewBox="0 0 1400 512" fill="none" xmlns="http://www.w3.org/2000/svg">
<path d="M0 1L1400 1.00012M0 31L1400 31.0001M0 61L1400 61.0001M0 91L1400 91.0001M0 121L1400 121M0 151L1400 151M0 181L1400 181M0 211L1400 211M0 241L1400 241M0 271L1400 271M0 301L1400 301M0 331L1400 331M0 361L1400 361M0 391L1400 391M0 421L1400 421M0 451L1400 451M0 481L1400 481M0 511L1400 511" stroke="#2D3748" stroke-width="2"/>
<path d="M207 1L207 511" stroke="#2D3748" stroke-width="2"/>
<path d="M1206 1L1206 511" stroke="#2D3748" stroke-width="2"/>
<path d="M128 1L128 511" stroke="#2D3748" stroke-width="2"/>
</svg>