<svg width="228" height="188" viewBox="0 0 228 188" fill="none" xmlns="http://www.w3.org/2000/svg">
<path d="M82.4978 92.3006C104.739 92.3006 122.769 84.5214 122.769 74.9254V61.6384H42.2266V74.9254C42.2266 84.5214 60.2566 92.3006 82.4978 92.3006Z" fill="#F7FAFC" stroke="#A3BFFA" stroke-width="1.75798" stroke-dasharray="3.52 3.52"/>
<path d="M120.309 56.7024C121.326 57.6854 122.048 58.7191 122.436 59.7899L121.61 60.0897C121.797 60.6042 121.89 61.1197 121.89 61.6379C121.89 62.156 121.797 62.6716 121.61 63.186L122.436 63.4859C122.048 64.5566 121.326 65.5903 120.309 66.5733L119.698 65.9414C118.937 66.6775 117.983 67.3971 116.847 68.0891L117.304 68.8399C116.305 69.4482 115.183 70.028 113.95 70.5749L113.594 69.7714C112.53 70.2432 111.379 70.6917 110.147 71.1134L110.431 71.945C109.289 72.3361 108.081 72.7035 106.815 73.0448L106.586 72.1961C105.426 72.5086 104.216 72.7994 102.959 73.0666L103.142 73.9264C101.944 74.181 100.705 74.4141 99.431 74.6243L99.2879 73.757C98.0854 73.9553 96.8497 74.133 95.5845 74.2888L95.692 75.1612C94.4652 75.3123 93.2116 75.4429 91.9343 75.5519L91.8596 74.6761C90.6345 74.7806 89.3872 74.865 88.1206 74.9284L88.1645 75.8063C86.9228 75.8685 85.6629 75.9105 84.3876 75.9314L84.3732 75.0525C83.7517 75.0627 83.1265 75.0679 82.4978 75.0679C81.8692 75.0679 81.244 75.0627 80.6225 75.0525L80.6081 75.9314C79.3327 75.9105 78.0729 75.8685 76.8312 75.8063L76.8751 74.9284C75.6085 74.865 74.3612 74.7806 73.1361 74.6761L73.0614 75.5519C71.7841 75.4429 70.5304 75.3123 69.3037 75.1612L69.4112 74.2888C68.146 74.133 66.9103 73.9553 65.7077 73.757L65.5647 74.6243C64.2903 74.4141 63.052 74.181 61.8541 73.9264L62.0368 73.0666C60.7799 72.7994 59.5692 72.5086 58.4097 72.1961L58.181 73.0448C56.9147 72.7035 55.707 72.3361 54.5643 71.945L54.8489 71.1134C53.6167 70.6917 52.4652 70.2433 51.402 69.7714L51.0454 70.5749C49.8129 70.028 48.691 69.4482 47.6918 68.8399L48.1489 68.0891C47.0123 67.3971 46.0585 66.6775 45.2973 65.9414L44.6863 66.5733C43.6696 65.5903 42.9479 64.5566 42.5593 63.4859L43.3856 63.186C43.1989 62.6716 43.1056 62.156 43.1056 61.6379C43.1056 61.1197 43.1989 60.6042 43.3856 60.0897L42.5593 59.7899C42.9479 58.7191 43.6696 57.6854 44.6863 56.7024L45.2973 57.3343C46.0585 56.5982 47.0123 55.8787 48.1489 55.1866L47.6918 54.4359C48.691 53.8275 49.8129 53.2478 51.0454 52.7008L51.402 53.5043C52.4652 53.0325 53.6167 52.584 54.8489 52.1623L54.5643 51.3307C55.707 50.9396 56.9147 50.5723 58.181 50.2309L58.4097 51.0796C59.5692 50.7671 60.7799 50.4763 62.0368 50.2091L61.8541 49.3494C63.052 49.0947 64.2903 48.8616 65.5647 48.6515L65.7077 49.5187C66.9103 49.3204 68.146 49.1427 69.4112 48.9869L69.3037 48.1145C70.5304 47.9634 71.7841 47.8328 73.0614 47.7239L73.1361 48.5997C74.3612 48.4952 75.6085 48.4107 76.8751 48.3473L76.8312 47.4694C78.0729 47.4073 79.3327 47.3653 80.6081 47.3443L80.6225 48.2232C81.244 48.213 81.8692 48.2078 82.4978 48.2078C83.1265 48.2078 83.7517 48.213 84.3732 48.2232L84.3876 47.3443C85.6629 47.3653 86.9228 47.4073 88.1645 47.4694L88.1206 48.3473C89.3872 48.4107 90.6345 48.4952 91.8596 48.5997L91.9343 47.7239C93.2116 47.8328 94.4652 47.9634 95.692 48.1145L95.5845 48.9869C96.8497 49.1427 98.0854 49.3204 99.2879 49.5187L99.431 48.6515C100.705 48.8616 101.944 49.0947 103.142 49.3494L102.959 50.2091C104.216 50.4763 105.426 50.7671 106.586 51.0796L106.815 50.2309C108.081 50.5723 109.289 50.9396 110.431 51.3307L110.147 52.1623C111.379 52.584 112.53 53.0325 113.594 53.5043L113.95 52.7008C115.183 53.2478 116.305 53.8275 117.304 54.4359L116.847 55.1866C117.983 55.8787 118.937 56.5982 119.698 57.3343L120.309 56.7024Z" fill="#F7FAFC" stroke="#A3BFFA" stroke-width="1.75798" stroke-dasharray="3.52 3.52"/>
<path d="M82.4978 67.7711C104.739 67.7711 122.769 61.1923 122.769 53.0769V39.1531H42.2266V53.0769C42.2266 61.1923 60.2566 67.7711 82.4978 67.7711Z" fill="#F7FAFC" stroke="#A3BFFA" stroke-width="1.75798" stroke-dasharray="3.52 3.52"/>
<path d="M121.013 33.6388C121.755 34.5621 122.274 35.5224 122.547 36.5108L121.7 36.7445C121.826 37.2031 121.89 37.6649 121.89 38.1304C121.89 38.5959 121.826 39.0576 121.7 39.5163L122.547 39.75C122.274 40.7383 121.755 41.6987 121.013 42.622L120.328 42.0714C119.749 42.7918 119.011 43.5018 118.118 44.1929L118.656 44.888C117.848 45.5134 116.931 46.1147 115.916 46.6885L115.483 45.9232C114.611 46.4159 113.659 46.8899 112.633 47.3422L112.987 48.1465C112.029 48.5691 111.01 48.9716 109.937 49.352L109.644 48.5235C108.666 48.8703 107.64 49.199 106.57 49.5079L106.814 50.3524C105.793 50.6471 104.735 50.9236 103.642 51.1808L103.441 50.3252C102.415 50.5665 101.358 50.7907 100.272 50.9967L100.436 51.8603C99.3842 52.0599 98.3062 52.2424 97.2044 52.407L97.0745 51.5377C96.0225 51.6949 94.9483 51.8356 93.8541 51.9589L93.9526 52.8324C92.8817 52.9531 91.7923 53.0574 90.6863 53.1443L90.6174 52.2681C89.5522 52.3518 88.4713 52.4194 87.3765 52.4702L87.4172 53.3482C86.3371 53.3983 85.2439 53.4321 84.1391 53.449L84.1257 52.5701C83.5858 52.5783 83.0431 52.5825 82.4978 52.5825C81.9526 52.5825 81.4099 52.5783 80.87 52.5701L80.8566 53.449C79.7518 53.4321 78.6585 53.3983 77.5784 53.3482L77.6192 52.4702C76.5244 52.4194 75.4435 52.3518 74.3783 52.2681L74.3094 53.1443C73.2034 53.0574 72.1139 52.9531 71.0431 52.8324L71.1416 51.9589C70.0474 51.8356 68.9732 51.6949 67.9211 51.5377L67.7913 52.407C66.6895 52.2424 65.6115 52.0599 64.5596 51.8603L64.7234 50.9967C63.6374 50.7907 62.5804 50.5665 61.5551 50.3252L61.3537 51.1808C60.2607 50.9236 59.2023 50.6471 58.182 50.3524L58.4259 49.5079C57.356 49.199 56.3302 48.8703 55.3522 48.5235L55.0584 49.352C53.9855 48.9716 52.9671 48.5691 52.0084 48.1465L52.3629 47.3422C51.3368 46.8899 50.3847 46.4159 49.5124 45.9232L49.0801 46.6885C48.0642 46.1147 47.1476 45.5134 46.3396 44.888L46.8776 44.1929C45.9848 43.5018 45.2466 42.7918 44.6676 42.0714L43.9825 42.622C43.2404 41.6987 42.7212 40.7383 42.4486 39.75L43.296 39.5163C43.1695 39.0576 43.1056 38.5959 43.1056 38.1304C43.1056 37.6649 43.1695 37.2031 43.296 36.7445L42.4486 36.5108C42.7212 35.5224 43.2404 34.5621 43.9825 33.6388L44.6676 34.1894C45.2466 33.469 45.9848 32.7589 46.8776 32.0679L46.3396 31.3728C47.1476 30.7474 48.0642 30.146 49.0801 29.5723L49.5124 30.3376C50.3847 29.8449 51.3368 29.3709 52.3629 28.9186L52.0084 28.1142C52.9671 27.6917 53.9855 27.2892 55.0584 26.9088L55.3522 27.7373C56.3302 27.3905 57.356 27.0618 58.4259 26.7529L58.182 25.9084C59.2023 25.6137 60.2607 25.3372 61.3537 25.08L61.5551 25.9356C62.5804 25.6943 63.6374 25.4701 64.7234 25.2641L64.5596 24.4005C65.6115 24.2009 66.6895 24.0184 67.7913 23.8538L67.9211 24.7231C68.9732 24.5659 70.0474 24.4252 71.1416 24.3018L71.0431 23.4284C72.1139 23.3077 73.2034 23.2034 74.3094 23.1165L74.3783 23.9927C75.4435 23.909 76.5244 23.8414 77.6192 23.7906L77.5785 22.9126C78.6585 22.8625 79.7518 22.8287 80.8566 22.8118L80.87 23.6907C81.4099 23.6825 81.9526 23.6783 82.4978 23.6783C83.0431 23.6783 83.5858 23.6825 84.1257 23.6907L84.1391 22.8118C85.2439 22.8287 86.3371 22.8625 87.4172 22.9126L87.3765 23.7906C88.4713 23.8414 89.5522 23.909 90.6174 23.9927L90.6863 23.1165C91.7923 23.2034 92.8817 23.3077 93.9526 23.4284L93.8541 24.3018C94.9483 24.4252 96.0225 24.5659 97.0745 24.7231L97.2044 23.8538C98.3062 24.0184 99.3842 24.2009 100.436 24.4005L100.272 25.2641C101.358 25.4701 102.415 25.6943 103.441 25.9356L103.642 25.08C104.735 25.3372 105.793 25.6137 106.814 25.9084L106.57 26.7529C107.64 27.0618 108.666 27.3905 109.644 27.7373L109.937 26.9088C111.01 27.2892 112.029 27.6917 112.987 28.1143L112.633 28.9186C113.659 29.3709 114.611 29.8449 115.483 30.3376L115.916 29.5723C116.931 30.146 117.848 30.7474 118.656 31.3728L118.118 32.0679C119.011 32.7589 119.749 33.469 120.328 34.1894L121.013 33.6388Z" fill="#F7FAFC" stroke="#A3BFFA" stroke-width="1.75798" stroke-dasharray="3.52 3.52"/>
<path d="M82.4978 43.8641C81.8648 43.8641 81.2352 43.8586 80.6094 43.8478L80.5943 44.7267C79.3095 44.7045 78.0404 44.6601 76.7899 44.5944L76.836 43.7166C75.5606 43.6496 74.3048 43.5603 73.0717 43.4498L72.9933 44.3253C71.707 44.21 70.4449 44.0719 69.2101 43.9121L69.3229 43.0404C68.05 42.8757 66.8071 42.6878 65.598 42.4782L65.4479 43.3443C64.1662 43.1222 62.9212 42.8757 61.7174 42.6066L61.9092 41.7488C60.6456 41.4663 59.4292 41.1589 58.2651 40.8286L58.0252 41.6741C56.7554 41.3138 55.5453 40.9261 54.4012 40.5133L54.6994 39.6865C53.4662 39.2416 52.3151 38.7686 51.2539 38.2712L50.8809 39.0671C49.6526 38.4913 48.5365 37.8812 47.5449 37.2412L48.0215 36.5027C46.9 35.7789 45.9615 35.0267 45.2156 34.2572L44.5845 34.869C43.6037 33.8573 42.9098 32.795 42.539 31.6955L43.3719 31.4146C43.1947 30.889 43.1056 30.3606 43.1056 29.8284V28.0619H42.2266V24.5287H43.1056V20.9955H42.2266V17.4624H43.1056V16.5748H44.0571V15.6958H47.7181V16.5748H51.3791V15.6958H55.0402V16.5748H58.7012V15.6958H62.3622V16.5748H66.0232V15.6958H69.6843V16.5748H73.3453V15.6958H77.0063V16.5748H80.6673V15.6958H84.3284V16.5748H87.9894V15.6958H91.6504V16.5748H95.3114V15.6958H98.9725V16.5748H102.633V15.6958H106.295V16.5748H109.956V15.6958H113.617V16.5748H117.278V15.6958H120.939V16.5748H121.89V17.4624H122.769V20.9955H121.89V24.5287H122.769V28.0619H121.89V29.8284C121.89 30.3606 121.801 30.889 121.624 31.4146L122.457 31.6954C122.086 32.795 121.392 33.8573 120.411 34.869L119.78 34.2572C119.034 35.0267 118.096 35.7789 116.974 36.5027L117.451 37.2412C116.459 37.8812 115.343 38.4913 114.115 39.0671L113.742 38.2712C112.681 38.7686 111.53 39.2416 110.296 39.6865L110.595 40.5133C109.45 40.9261 108.24 41.3138 106.971 41.6741L106.731 40.8286C105.566 41.1589 104.35 41.4663 103.087 41.7488L103.278 42.6066C102.074 42.8757 100.83 43.1221 99.5478 43.3443L99.3977 42.4782C98.1885 42.6878 96.9457 42.8757 95.6727 43.0404L95.7855 43.9121C94.5508 44.0719 93.2887 44.21 92.0024 44.3253L91.924 43.4498C90.6909 43.5603 89.4351 43.6496 88.1597 43.7166L88.2058 44.5944C86.9552 44.6601 85.6862 44.7045 84.4014 44.7267L84.3863 43.8478C83.7605 43.8586 83.1309 43.8641 82.4978 43.8641Z" fill="#F7FAFC" stroke="#A3BFFA" stroke-width="1.75798" stroke-dasharray="3.52 3.52"/>
<path d="M120.413 10.1875C121.394 11.1992 122.088 12.2616 122.459 13.3611L121.626 13.6419C121.803 14.1676 121.892 14.696 121.892 15.2281C121.892 15.7602 121.803 16.2886 121.626 16.8143L122.459 17.0951C122.088 18.1946 121.394 19.257 120.413 20.2687L119.782 19.6569C119.036 20.4263 118.098 21.1785 116.976 21.9023L117.453 22.6409C116.461 23.2808 115.345 23.891 114.117 24.4667L113.744 23.6708C112.683 24.1683 111.531 24.6413 110.298 25.0862L110.596 25.913C109.452 26.3257 108.242 26.7134 106.972 27.0738L106.732 26.2282C105.568 26.5586 104.352 26.866 103.088 27.1485L103.28 28.0063C102.076 28.2754 100.831 28.5218 99.5497 28.744L99.3996 27.8779C98.1905 28.0875 96.9476 28.2753 95.6747 28.44L95.7875 29.3118C94.5528 29.4715 93.2906 29.6097 92.0044 29.7249L91.9259 28.8494C90.6928 28.9599 89.4371 29.0493 88.1616 29.1163L88.2078 29.9941C86.9572 30.0598 85.6881 30.1042 84.4034 30.1263L84.3882 29.2475C83.7624 29.2583 83.1328 29.2637 82.4998 29.2637C81.8667 29.2637 81.2372 29.2583 80.6114 29.2475L80.5962 30.1263C79.3114 30.1042 78.0424 30.0598 76.7918 29.9941L76.838 29.1163C75.5625 29.0493 74.3068 28.9599 73.0737 28.8494L72.9952 29.7249C71.709 29.6097 70.4468 29.4715 69.2121 29.3118L69.3249 28.44C68.052 28.2753 66.8091 28.0875 65.5999 27.8779L65.4498 28.744C64.1681 28.5218 62.9232 28.2754 61.7194 28.0063L61.9111 27.1485C60.6475 26.866 59.4311 26.5586 58.2671 26.2282L58.0271 27.0738C56.7573 26.7134 55.5472 26.3257 54.4031 25.913L54.7014 25.0862C53.4681 24.6413 52.3171 24.1683 51.2559 23.6708L50.8828 24.4667C49.6545 23.891 48.5384 23.2808 47.5468 22.6409L48.0234 21.9023C46.9019 21.1785 45.9635 20.4263 45.2175 19.6568L44.5864 20.2687C43.6057 19.257 42.9117 18.1946 42.541 17.0951L43.3739 16.8143C43.1967 16.2886 43.1075 15.7602 43.1075 15.2281C43.1075 14.696 43.1967 14.1676 43.3739 13.6419L42.541 13.3611C42.9117 12.2616 43.6057 11.1992 44.5864 10.1875L45.2175 10.7993C45.9635 10.0299 46.9019 9.27765 48.0234 8.55386L47.5468 7.81532C48.5384 7.17536 49.6545 6.56524 50.8828 5.98946L51.2559 6.78534C52.3171 6.28791 53.4681 5.81491 54.7014 5.37003L54.4031 4.54319C55.5472 4.13047 56.7574 3.74274 58.0271 3.38239L58.2671 4.22798C59.4312 3.89763 60.6475 3.59019 61.9111 3.30772L61.7194 2.44991C62.9232 2.18081 64.1681 1.93438 65.4498 1.71223L65.6 2.57831C66.8091 2.36873 68.052 2.18088 69.3249 2.01616L69.2121 1.14444C70.4468 0.984665 71.709 0.846534 72.9952 0.731273L73.0737 1.60675C74.3068 1.49626 75.5625 1.40694 76.838 1.33992L76.7918 0.462138C78.0424 0.396425 79.3114 0.351986 80.5962 0.329845L80.6114 1.2087C81.2372 1.19792 81.8667 1.19247 82.4998 1.19247C83.1329 1.19247 83.7624 1.19792 84.3882 1.2087L84.4034 0.329845C85.6882 0.351987 86.9572 0.396425 88.2078 0.462139L88.1616 1.33992C89.4371 1.40694 90.6928 1.49626 91.9259 1.60676L92.0044 0.731274C93.2906 0.846535 94.5528 0.984666 95.7875 1.14444L95.6747 2.01616C96.9476 2.18088 98.1905 2.36873 99.3996 2.57831L99.5497 1.71223C100.831 1.93438 102.076 2.18081 103.28 2.44991L103.088 3.30773C104.352 3.59019 105.568 3.89763 106.732 4.22798L106.972 3.38239C108.242 3.74275 109.452 4.13047 110.596 4.54319L110.298 5.37003C111.531 5.81491 112.683 6.28791 113.744 6.78535L114.117 5.98946C115.345 6.56524 116.461 7.17537 117.453 7.81532L116.976 8.55387C118.098 9.27765 119.036 10.0299 119.782 10.7993L120.413 10.1875Z" fill="#F7FAFC" stroke="#A3BFFA" stroke-width="1.75798" stroke-dasharray="3.52 3.52"/>
<g filter="url(#filter0_dd_1370_62638)">
<path d="M150.171 152.951C181.598 152.951 207.076 141.986 207.076 128.46V109.732H93.2656V128.46C93.2656 141.986 118.743 152.951 150.171 152.951Z" fill="url(#paint0_linear_1370_62638)"/>
<ellipse cx="150.171" cy="109.731" rx="56.9051" ry="20.1689" fill="url(#paint1_linear_1370_62638)"/>
<ellipse cx="150.171" cy="109.731" rx="56.9051" ry="20.1689" fill="url(#paint2_radial_1370_62638)" fill-opacity="0.44"/>
<path d="M150.17 127.019C180.007 127.019 204.194 118.612 204.194 108.243V93.8843H96.1465V108.243C96.1465 118.612 120.334 127.019 150.17 127.019Z" fill="url(#paint3_linear_1370_62638)"/>
<path d="M150.17 127.019C180.007 127.019 204.194 118.612 204.194 108.243V93.8843H96.1465V108.243C96.1465 118.612 120.334 127.019 150.17 127.019Z" fill="#C6D4DB" fill-opacity="0.284"/>
<path opacity="0.5" d="M150.17 121.098C180.007 121.098 204.194 112.692 204.194 102.322V87.9639H96.1465V102.322C96.1465 112.692 120.334 121.098 150.17 121.098Z" fill="url(#paint4_linear_1370_62638)"/>
<path d="M150.171 118.376C181.598 118.376 207.076 109.103 207.076 97.6642V78.0383H93.2656V97.6642C93.2656 109.103 118.743 118.376 150.171 118.376Z" fill="url(#paint5_linear_1370_62638)"/>
<ellipse cx="150.171" cy="76.5968" rx="56.9051" ry="21.6095" fill="url(#paint6_linear_1370_62638)"/>
<ellipse cx="150.171" cy="76.5968" rx="56.9051" ry="21.6095" fill="url(#paint7_radial_1370_62638)" fill-opacity="0.44"/>
<path d="M150.17 95.3257C180.007 95.3257 204.194 86.5538 204.194 75.7331V60.7505H96.1465V75.7331C96.1465 86.5538 120.334 95.3257 150.17 95.3257Z" fill="url(#paint8_linear_1370_62638)"/>
<path d="M150.17 95.3257C180.007 95.3257 204.194 86.5538 204.194 75.7331V60.7505H96.1465V75.7331C96.1465 86.5538 120.334 95.3257 150.17 95.3257Z" fill="#C6D4DB" fill-opacity="0.284"/>
<path opacity="0.5" d="M150.17 88.7471C180.007 88.7471 204.194 79.9752 204.194 69.1545V54.1719H96.1465V69.1545C96.1465 79.9752 120.334 88.7471 150.17 88.7471Z" fill="url(#paint9_linear_1370_62638)"/>
<path d="M150.171 85.9179C181.598 85.9179 207.076 76.5058 207.076 64.8954V44.9751H93.2656V64.8954C93.2656 76.5058 118.743 85.9179 150.171 85.9179Z" fill="url(#paint10_linear_1370_62638)"/>
<ellipse cx="150.173" cy="44.3157" rx="56.9051" ry="21.0225" fill="url(#paint11_linear_1370_62638)"/>
<path d="M206.091 44.3157C206.091 46.8289 204.716 49.3457 201.957 51.7554C199.2 54.1633 195.154 56.3766 190.069 58.2552C179.906 62.0096 165.801 64.3514 150.173 64.3514C134.544 64.3514 120.439 62.0096 110.277 58.2552C105.192 56.3766 101.145 54.1633 98.3886 51.7554C95.6297 49.3457 94.2544 46.8289 94.2544 44.3157C94.2544 41.8026 95.6297 39.2857 98.3886 36.876C101.145 34.4682 105.192 32.2548 110.277 30.3762C120.439 26.6219 134.544 24.28 150.173 24.28C165.801 24.28 179.906 26.6219 190.069 30.3762C195.154 32.2548 199.2 34.4682 201.957 36.876C204.716 39.2857 206.091 41.8026 206.091 44.3157Z" stroke="url(#paint12_radial_1370_62638)" stroke-opacity="0.46" stroke-width="1.97359"/>
</g>
<g filter="url(#filter1_dd_1370_62638)">
<rect x="158.836" y="111" width="64" height="64" rx="32" fill="#5A67D8"/>
<path d="M199.193 129.812C199.568 128.938 199.256 127.938 198.506 127.438C197.756 126.875 196.756 126.938 196.006 127.5L180.006 141.5C179.381 142.062 179.193 142.938 179.506 143.75C179.756 144.5 180.506 145 181.381 145H188.318L183.506 156.25C183.131 157.125 183.443 158.125 184.193 158.625C184.943 159.188 185.943 159.125 186.693 158.562L202.693 144.562C203.318 144 203.506 143.125 203.256 142.312C202.943 141.562 202.193 141.062 201.381 141.062H194.381L199.193 129.812Z" fill="#EBF4FF"/>
</g>
<path d="M42.0642 121.307C64.3055 121.307 82.3355 113.528 82.3355 103.932V90.645H1.79297V103.932C1.79297 113.528 19.823 121.307 42.0642 121.307Z" fill="#F7FAFC" stroke="#A3BFFA" stroke-width="1.75798" stroke-dasharray="3.52 3.52"/>
<path d="M79.8758 85.709C80.8925 86.692 81.6142 87.7257 82.0028 88.7964L81.1765 89.0963C81.3632 89.6108 81.4565 90.1263 81.4565 90.6445C81.4565 91.1626 81.3632 91.6782 81.1765 92.1926L82.0028 92.4925C81.6142 93.5632 80.8925 94.5969 79.8758 95.5799L79.2648 94.948C78.5036 95.6841 77.5498 96.4036 76.4132 97.0957L76.8703 97.8465C75.8711 98.4548 74.7492 99.0346 73.5167 99.5815L73.1601 98.778C72.0969 99.2498 70.9454 99.6983 69.7132 100.12L69.9978 100.952C68.855 101.343 67.6474 101.71 66.3811 102.051L66.1524 101.203C64.9929 101.515 63.7822 101.806 62.5253 102.073L62.708 102.933C61.5101 103.188 60.2718 103.421 58.9974 103.631L58.8543 102.764C57.6518 102.962 56.4161 103.14 55.1509 103.295L55.2584 104.168C54.0316 104.319 52.778 104.449 51.5007 104.558L51.426 103.683C50.2009 103.787 48.9536 103.872 47.687 103.935L47.7309 104.813C46.4892 104.875 45.2293 104.917 43.954 104.938L43.9396 104.059C43.3181 104.069 42.6929 104.074 42.0642 104.074C41.4356 104.074 40.8104 104.069 40.1889 104.059L40.1745 104.938C38.8991 104.917 37.6393 104.875 36.3976 104.813L36.4415 103.935C35.1749 103.872 33.9276 103.787 32.7025 103.683L32.6278 104.558C31.3505 104.449 30.0968 104.319 28.8701 104.168L28.9776 103.295C27.7124 103.14 26.4767 102.962 25.2741 102.764L25.1311 103.631C23.8567 103.421 22.6184 103.188 21.4205 102.933L21.6032 102.073C20.3463 101.806 19.1356 101.515 17.9761 101.203L17.7474 102.051C16.4811 101.71 15.2735 101.343 14.1307 100.952L14.4153 100.12C13.1831 99.6983 12.0316 99.2498 10.9684 98.778L10.6118 99.5815C9.3793 99.0346 8.25741 98.4548 7.25822 97.8465L7.71532 97.0957C6.57866 96.4036 5.62494 95.6841 4.86366 94.948L4.25266 95.5799C3.23599 94.5969 2.51431 93.5632 2.12573 92.4925L2.952 92.1926C2.7653 91.6782 2.67196 91.1626 2.67196 90.6445C2.67196 90.1263 2.7653 89.6108 2.952 89.0963L2.12573 88.7964C2.51431 87.7257 3.236 86.692 4.25266 85.709L4.86366 86.3409C5.62494 85.6048 6.57866 84.8853 7.71532 84.1932L7.25822 83.4425C8.25741 82.8341 9.3793 82.2544 10.6118 81.7074L10.9684 82.5109C12.0316 82.0391 13.1831 81.5906 14.4153 81.1689L14.1307 80.3373C15.2734 79.9462 16.4811 79.5789 17.7474 79.2375L17.9761 80.0862C19.1356 79.7737 20.3463 79.4829 21.6032 79.2157L21.4205 78.356C22.6184 78.1013 23.8567 77.8682 25.1311 77.6581L25.2741 78.5253C26.4767 78.327 27.7124 78.1493 28.9776 77.9935L28.8701 77.1211C30.0968 76.97 31.3505 76.8394 32.6278 76.7304L32.7025 77.6063C33.9276 77.5017 35.1749 77.4173 36.4415 77.3539L36.3976 76.476C37.6393 76.4139 38.8992 76.3719 40.1745 76.3509L40.1889 77.2298C40.8104 77.2196 41.4356 77.2144 42.0642 77.2144C42.6929 77.2144 43.3181 77.2196 43.9396 77.2298L43.954 76.3509C45.2294 76.3719 46.4892 76.4139 47.7309 76.476L47.687 77.3539C48.9536 77.4173 50.2009 77.5017 51.426 77.6063L51.5007 76.7304C52.778 76.8394 54.0317 76.97 55.2584 77.1211L55.1509 77.9935C56.4161 78.1493 57.6518 78.327 58.8544 78.5253L58.9974 77.6581C60.2718 77.8682 61.5101 78.1013 62.708 78.356L62.5253 79.2157C63.7822 79.4829 64.9929 79.7737 66.1524 80.0862L66.3811 79.2375C67.6474 79.5789 68.855 79.9462 69.9978 80.3373L69.7132 81.1689C70.9454 81.5906 72.0969 82.0391 73.1601 82.5109L73.5166 81.7074C74.7492 82.2544 75.8711 82.8341 76.8703 83.4425L76.4132 84.1932C77.5498 84.8853 78.5036 85.6048 79.2648 86.3409L79.8758 85.709Z" fill="#F7FAFC" stroke="#A3BFFA" stroke-width="1.75798" stroke-dasharray="3.52 3.52"/>
<path d="M42.0642 96.7777C64.3055 96.7777 82.3355 90.1989 82.3355 82.0835V68.1597H1.79297V82.0835C1.79297 90.1989 19.823 96.7777 42.0642 96.7777Z" fill="#F7FAFC" stroke="#A3BFFA" stroke-width="1.75798" stroke-dasharray="3.52 3.52"/>
<path d="M80.5796 62.6454C81.3216 63.5687 81.8409 64.529 82.1135 65.5174L81.2661 65.7511C81.3926 66.2097 81.4565 66.6715 81.4565 67.137C81.4565 67.6024 81.3926 68.0642 81.2661 68.5229L82.1135 68.7566C81.8409 69.7449 81.3216 70.7053 80.5796 71.6286L79.8945 71.078C79.3155 71.7984 78.5773 72.5084 77.6844 73.1995L78.2225 73.8946C77.4145 74.52 76.4978 75.1213 75.4819 75.6951L75.0497 74.9298C74.1773 75.4225 73.2253 75.8965 72.1992 76.3488L72.5537 77.1531C71.5949 77.5757 70.5766 77.9782 69.5036 78.3586L69.2099 77.5301C68.2319 77.8769 67.2061 78.2055 66.1362 78.5145L66.38 79.359C65.3597 79.6536 64.3014 79.9302 63.2084 80.1874L63.007 79.3318C61.9817 79.5731 60.9247 79.7973 59.8387 80.0033L60.0025 80.8669C58.9506 81.0664 57.8726 81.249 56.7708 81.4136L56.6409 80.5443C55.5889 80.7015 54.5147 80.8422 53.4205 80.9655L53.519 81.839C52.4481 81.9597 51.3587 82.064 50.2527 82.1509L50.1838 81.2746C49.1186 81.3584 48.0377 81.426 46.9429 81.4768L46.9836 82.3548C45.9035 82.4049 44.8103 82.4387 43.7055 82.4556L43.6921 81.5767C43.1522 81.5849 42.6095 81.5891 42.0642 81.5891C41.519 81.5891 40.9763 81.5849 40.4364 81.5767L40.423 82.4556C39.3182 82.4387 38.2249 82.4049 37.1449 82.3548L37.1856 81.4768C36.0908 81.426 35.0099 81.3584 33.9447 81.2746L33.8758 82.1509C32.7698 82.064 31.6804 81.9597 30.6095 81.839L30.708 80.9655C29.6138 80.8422 28.5396 80.7015 27.4876 80.5443L27.3577 81.4136C26.2559 81.249 25.1779 81.0664 24.126 80.8669L24.2898 80.0033C23.2038 79.7973 22.1468 79.5731 21.1215 79.3318L20.9201 80.1874C19.8271 79.9302 18.7687 79.6536 17.7485 79.359L17.9923 78.5145C16.9224 78.2055 15.8966 77.8769 14.9186 77.5301L14.6248 78.3586C13.5519 77.9782 12.5335 77.5757 11.5748 77.1531L11.9293 76.3488C10.9032 75.8965 9.95114 75.4225 9.07881 74.9298L8.64653 75.6951C7.63063 75.1213 6.71401 74.52 5.90603 73.8946L6.44405 73.1995C5.55123 72.5084 4.81303 71.7984 4.23402 71.078L3.54887 71.6286C2.80684 70.7053 2.28761 69.7449 2.01502 68.7566L2.86238 68.5229C2.73587 68.0642 2.67196 67.6024 2.67196 67.137C2.67196 66.6715 2.73587 66.2097 2.86238 65.7511L2.01502 65.5174C2.28761 64.529 2.80684 63.5687 3.54888 62.6454L4.23402 63.196C4.81303 62.4756 5.55123 61.7655 6.44405 61.0745L5.90604 60.3794C6.71401 59.754 7.63064 59.1526 8.64654 58.5788L9.07881 59.3442C9.95114 58.8515 10.9032 58.3775 11.9293 57.9252L11.5748 57.1208C12.5335 56.6983 13.5519 56.2958 14.6248 55.9154L14.9186 56.7439C15.8966 56.3971 16.9224 56.0684 17.9923 55.7595L17.7485 54.915C18.7687 54.6203 19.8271 54.3438 20.9201 54.0866L21.1215 54.9422C22.1468 54.7009 23.2038 54.4767 24.2898 54.2707L24.126 53.4071C25.1779 53.2075 26.2559 53.025 27.3577 52.8604L27.4876 53.7297C28.5396 53.5725 29.6138 53.4318 30.708 53.3084L30.6095 52.435C31.6804 52.3143 32.7698 52.21 33.8758 52.123L33.9447 52.9993C35.0099 52.9156 36.0908 52.848 37.1856 52.7972L37.1449 51.9191C38.2249 51.8691 39.3182 51.8353 40.423 51.8184L40.4364 52.6973C40.9763 52.6891 41.519 52.6849 42.0642 52.6849C42.6095 52.6849 43.1522 52.6891 43.6921 52.6973L43.7055 51.8184C44.8103 51.8353 45.9035 51.8691 46.9836 51.9191L46.9429 52.7972C48.0377 52.848 49.1186 52.9156 50.1838 52.9993L50.2527 52.123C51.3587 52.21 52.4481 52.3143 53.519 52.435L53.4205 53.3084C54.5147 53.4318 55.5889 53.5725 56.6409 53.7297L56.7708 52.8604C57.8726 53.025 58.9506 53.2075 60.0025 53.4071L59.8387 54.2707C60.9247 54.4767 61.9817 54.7009 63.007 54.9422L63.2084 54.0866C64.3014 54.3438 65.3597 54.6203 66.38 54.915L66.1362 55.7595C67.2061 56.0684 68.2319 56.3971 69.2099 56.7439L69.5036 55.9154C70.5766 56.2958 71.5949 56.6983 72.5537 57.1208L72.1992 57.9252C73.2253 58.3775 74.1773 58.8515 75.0497 59.3442L75.482 58.5789C76.4979 59.1526 77.4145 59.754 78.2225 60.3794L77.6844 61.0745C78.5773 61.7655 79.3155 62.4756 79.8945 63.196L80.5796 62.6454Z" fill="#F7FAFC" stroke="#A3BFFA" stroke-width="1.75798" stroke-dasharray="3.52 3.52"/>
<path d="M42.0642 72.8707C41.4312 72.8707 40.8016 72.8652 40.1758 72.8544L40.1607 73.7333C38.8759 73.7111 37.6068 73.6667 36.3563 73.601L36.4024 72.7232C35.127 72.6562 33.8712 72.5669 32.6381 72.4564L32.5597 73.3319C31.2734 73.2166 30.0113 73.0785 28.7766 72.9187L28.8894 72.047C27.6164 71.8822 26.3735 71.6944 25.1644 71.4848L25.0143 72.3509C23.7326 72.1287 22.4876 71.8823 21.2838 71.6132L21.4756 70.7554C20.212 70.4729 18.9956 70.1655 17.8316 69.8351L17.5916 70.6807C16.3218 70.3204 15.1117 69.9327 13.9676 69.5199L14.2658 68.6931C13.0326 68.2482 11.8815 67.7752 10.8203 67.2778L10.4473 68.0737C9.21897 67.4979 8.1029 66.8878 7.11127 66.2478L7.5879 65.5093C6.46638 64.7855 5.52795 64.0333 4.782 63.2638L4.15088 63.8756C3.17012 62.8639 2.4762 61.8016 2.10544 60.702L2.93836 60.4212C2.76111 59.8955 2.67196 59.3672 2.67196 58.835V57.0684H1.79297V53.5353H2.67196V50.0021H1.79297V46.469H2.67196V45.5814H3.62348V44.7024H7.28451V45.5814H10.9455V44.7024H14.6066V45.5814H18.2676V44.7024H21.9286V45.5814H25.5896V44.7024H29.2507V45.5814H32.9117V44.7024H36.5727V45.5814H40.2337V44.7024H43.8948V45.5814H47.5558V44.7024H51.2168V45.5814H54.8778V44.7024H58.5389V45.5814H62.1999V44.7024H65.8609V45.5814H69.5219V44.7024H73.183V45.5814H76.844V44.7024H80.505V45.5814H81.4565V46.469H82.3355V50.0021H81.4565V53.5353H82.3355V57.0684H81.4565V58.835C81.4565 59.3672 81.3674 59.8955 81.1901 60.4212L82.0231 60.702C81.6523 61.8016 80.9584 62.8639 79.9776 63.8756L79.3465 63.2638C78.6006 64.0333 77.6621 64.7855 76.5406 65.5093L77.0172 66.2478C76.0256 66.8878 74.9095 67.4979 73.6812 68.0737L73.3082 67.2778C72.247 67.7752 71.0959 68.2482 69.8627 68.6931L70.1609 69.5199C69.0168 69.9327 67.8067 70.3204 66.5369 70.6807L66.2969 69.8351C65.1329 70.1655 63.9165 70.4729 62.6529 70.7554L62.8447 71.6132C61.6409 71.8823 60.3959 72.1287 59.1142 72.3509L58.9641 71.4848C57.755 71.6944 56.5121 71.8822 55.2392 72.047L55.352 72.9187C54.1172 73.0785 52.8551 73.2166 51.5688 73.3319L51.4904 72.4564C50.2573 72.5669 49.0015 72.6562 47.7261 72.7232L47.7722 73.601C46.5217 73.6667 45.2526 73.7111 43.9678 73.7333L43.9527 72.8544C43.3269 72.8652 42.6973 72.8707 42.0642 72.8707Z" fill="#F7FAFC" stroke="#A3BFFA" stroke-width="1.75798" stroke-dasharray="3.52 3.52"/>
<path d="M79.9796 39.1941C80.9603 40.2058 81.6543 41.2682 82.025 42.3677L81.1921 42.6485C81.3693 43.1742 81.4585 43.7026 81.4585 44.2347C81.4585 44.7668 81.3693 45.2952 81.1921 45.8208L82.025 46.1017C81.6542 47.2012 80.9603 48.2636 79.9796 49.2753L79.3484 48.6634C78.6025 49.4329 77.6641 50.1851 76.5425 50.9089L77.0192 51.6475C76.0275 52.2874 74.9115 52.8976 73.6832 53.4733L73.3101 52.6774C72.2489 53.1749 71.0979 53.6479 69.8646 54.0928L70.1629 54.9196C69.0188 55.3323 67.8086 55.72 66.5389 56.0804L66.2989 55.2348C65.1348 55.5652 63.9185 55.8726 62.6549 56.1551L62.8466 57.0129C61.6428 57.282 60.3979 57.5284 59.1161 57.7506L58.966 56.8845C57.7569 57.0941 56.514 57.2819 55.2411 57.4466L55.3539 58.3183C54.1192 58.4781 52.857 58.6162 51.5708 58.7315L51.4923 57.856C50.2592 57.9665 49.0035 58.0558 47.728 58.1229L47.7742 59.0006C46.5236 59.0664 45.2546 59.1108 43.9698 59.1329L43.9546 58.2541C43.3288 58.2649 42.6993 58.2703 42.0662 58.2703C41.4331 58.2703 40.8036 58.2649 40.1778 58.2541L40.1626 59.1329C38.8778 59.1108 37.6088 59.0664 36.3582 59.0006L36.4044 58.1229C35.1289 58.0558 33.8732 57.9665 32.6401 57.856L32.5616 58.7315C31.2754 58.6162 30.0132 58.4781 28.7785 58.3183L28.8913 57.4466C27.6184 57.2819 26.3755 57.094 25.1664 56.8845L25.0162 57.7506C23.7345 57.5284 22.4896 57.282 21.2858 57.0129L21.4775 56.1551C20.2139 55.8726 18.9976 55.5652 17.8335 55.2348L17.5935 56.0804C16.3238 55.72 15.1136 55.3323 13.9695 54.9196L14.2678 54.0928C13.0345 53.6479 11.8835 53.1749 10.8223 52.6774L10.4492 53.4733C9.22092 52.8975 8.10484 52.2874 7.11322 51.6475L7.58985 50.9089C6.46832 50.1851 5.52989 49.4329 4.78394 48.6634L4.15283 49.2753C3.17207 48.2636 2.47815 47.2012 2.10739 46.1017L2.94031 45.8208C2.76306 45.2952 2.67391 44.7668 2.67391 44.2347C2.67391 43.7026 2.76306 43.1742 2.94031 42.6485L2.1074 42.3677C2.47815 41.2682 3.17207 40.2058 4.15284 39.1941L4.78395 39.8059C5.5299 39.0365 6.46833 38.2842 7.58985 37.5605L7.11323 36.8219C8.10485 36.182 9.22092 35.5718 10.4492 34.9961L10.8223 35.7919C11.8835 35.2945 13.0345 34.8215 14.2678 34.3766L13.9695 33.5498C15.1136 33.1371 16.3238 32.7493 17.5935 32.389L17.8335 33.2346C18.9976 32.9042 20.2139 32.5968 21.4775 32.3143L21.2858 31.4565C22.4896 31.1874 23.7345 30.941 25.0163 30.7188L25.1664 31.5849C26.3755 31.3753 27.6184 31.1875 28.8913 31.0228L28.7785 30.151C30.0132 29.9913 31.2754 29.8531 32.5616 29.7379L32.6401 30.6133C33.8732 30.5028 35.1289 30.4135 36.4044 30.3465L36.3582 29.4687C37.6088 29.403 38.8778 29.3586 40.1626 29.3364L40.1778 30.2153C40.8036 30.2045 41.4331 30.1991 42.0662 30.1991C42.6993 30.1991 43.3288 30.2045 43.9546 30.2153L43.9698 29.3364C45.2546 29.3586 46.5236 29.403 47.7742 29.4687L47.728 30.3465C49.0035 30.4135 50.2592 30.5028 51.4923 30.6133L51.5708 29.7379C52.857 29.8531 54.1192 29.9913 55.3539 30.151L55.2411 31.0228C56.514 31.1875 57.7569 31.3753 58.966 31.5849L59.1162 30.7188C60.3979 30.941 61.6428 31.1874 62.8466 31.4565L62.6549 32.3143C63.9185 32.5968 65.1348 32.9042 66.2989 33.2346L66.5389 32.389C67.8086 32.7493 69.0188 33.1371 70.1629 33.5498L69.8646 34.3766C71.0979 34.8215 72.2489 35.2945 73.3101 35.7919L73.6832 34.9961C74.9115 35.5718 76.0276 36.182 77.0192 36.8219L76.5426 37.5605C77.6641 38.2842 78.6025 39.0365 79.3485 39.8059L79.9796 39.1941Z" fill="#F7FAFC" stroke="#A3BFFA" stroke-width="1.75798" stroke-dasharray="3.52 3.52"/>
<defs>
<filter id="filter0_dd_1370_62638" x="90.0664" y="22.8596" width="120.27" height="138.091" filterUnits="userSpaceOnUse" color-interpolation-filters="sRGB">
<feFlood flood-opacity="0" result="BackgroundImageFix"/>
<feColorMatrix in="SourceAlpha" type="matrix" values="0 0 0 0 0 0 0 0 0 0 0 0 0 0 0 0 0 0 127 0" result="hardAlpha"/>
<feOffset dy="5"/>
<feGaussianBlur stdDeviation="1.5"/>
<feColorMatrix type="matrix" values="0 0 0 0 0.0901961 0 0 0 0 0.168627 0 0 0 0 0.301961 0 0 0 0.08 0"/>
<feBlend mode="normal" in2="BackgroundImageFix" result="effect1_dropShadow_1370_62638"/>
<feColorMatrix in="SourceAlpha" type="matrix" values="0 0 0 0 0 0 0 0 0 0 0 0 0 0 0 0 0 0 127 0" result="hardAlpha"/>
<feOffset dy="3"/>
<feGaussianBlur stdDeviation="1"/>
<feColorMatrix type="matrix" values="0 0 0 0 0.0901961 0 0 0 0 0.168627 0 0 0 0 0.301961 0 0 0 0.04 0"/>
<feBlend mode="normal" in2="effect1_dropShadow_1370_62638" result="effect2_dropShadow_1370_62638"/>
<feBlend mode="normal" in="SourceGraphic" in2="effect2_dropShadow_1370_62638" result="shape"/>
</filter>
<filter id="filter1_dd_1370_62638" x="153.836" y="111" width="74.5" height="77" filterUnits="userSpaceOnUse" color-interpolation-filters="sRGB">
<feFlood flood-opacity="0" result="BackgroundImageFix"/>
<feColorMatrix in="SourceAlpha" type="matrix" values="0 0 0 0 0 0 0 0 0 0 0 0 0 0 0 0 0 0 127 0" result="hardAlpha"/>
<feOffset dy="8"/>
<feGaussianBlur stdDeviation="2.5"/>
<feColorMatrix type="matrix" values="0 0 0 0 0.0901961 0 0 0 0 0.168627 0 0 0 0 0.301961 0 0 0 0.08 0"/>
<feBlend mode="normal" in2="BackgroundImageFix" result="effect1_dropShadow_1370_62638"/>
<feColorMatrix in="SourceAlpha" type="matrix" values="0 0 0 0 0 0 0 0 0 0 0 0 0 0 0 0 0 0 127 0" result="hardAlpha"/>
<feOffset dy="5"/>
<feGaussianBlur stdDeviation="1.5"/>
<feColorMatrix type="matrix" values="0 0 0 0 0.0901961 0 0 0 0 0.168627 0 0 0 0 0.301961 0 0 0 0.04 0"/>
<feBlend mode="normal" in2="effect1_dropShadow_1370_62638" result="effect2_dropShadow_1370_62638"/>
<feBlend mode="normal" in="SourceGraphic" in2="effect2_dropShadow_1370_62638" result="shape"/>
</filter>
<linearGradient id="paint0_linear_1370_62638" x1="93.2656" y1="102.775" x2="207.076" y2="102.775" gradientUnits="userSpaceOnUse">
<stop stop-color="#B4C5CD"/>
<stop offset="0.718232" stop-color="#6C8A98"/>
<stop offset="1" stop-color="#6B8692"/>
</linearGradient>
<linearGradient id="paint1_linear_1370_62638" x1="187.851" y1="82.0678" x2="130.097" y2="135.738" gradientUnits="userSpaceOnUse">
<stop stop-color="#648697"/>
<stop offset="1" stop-color="#B8CCD5"/>
</linearGradient>
<radialGradient id="paint2_radial_1370_62638" cx="0" cy="0" r="1" gradientUnits="userSpaceOnUse" gradientTransform="translate(118.264 129.978) rotate(-140.974) scale(32.1791 27.612)">
<stop stop-color="white"/>
<stop offset="1" stop-color="white" stop-opacity="0"/>
</radialGradient>
<linearGradient id="paint3_linear_1370_62638" x1="96.1465" y1="88.5506" x2="204.194" y2="88.5506" gradientUnits="userSpaceOnUse">
<stop stop-color="#183C56"/>
<stop offset="0.286458" stop-color="#335D7B"/>
<stop offset="1" stop-color="#082133"/>
</linearGradient>
<linearGradient id="paint4_linear_1370_62638" x1="96.1465" y1="82.6301" x2="204.194" y2="82.6301" gradientUnits="userSpaceOnUse">
<stop stop-color="#183C56"/>
<stop offset="0.286458" stop-color="#335D7B"/>
<stop offset="1" stop-color="#082133"/>
</linearGradient>
<linearGradient id="paint5_linear_1370_62638" x1="93.2656" y1="75.9422" x2="207.076" y2="75.9422" gradientUnits="userSpaceOnUse">
<stop stop-color="#B4C5CD"/>
<stop offset="0.718232" stop-color="#6C8A98"/>
<stop offset="1" stop-color="#6B8692"/>
</linearGradient>
<linearGradient id="paint6_linear_1370_62638" x1="187.851" y1="46.9575" x2="126.428" y2="100.232" gradientUnits="userSpaceOnUse">
<stop stop-color="#648697"/>
<stop offset="1" stop-color="#B8CCD5"/>
</linearGradient>
<radialGradient id="paint7_radial_1370_62638" cx="0" cy="0" r="1" gradientUnits="userSpaceOnUse" gradientTransform="translate(118.264 98.2896) rotate(-139.028) scale(33.1095 28.753)">
<stop stop-color="white"/>
<stop offset="1" stop-color="white" stop-opacity="0"/>
</radialGradient>
<linearGradient id="paint8_linear_1370_62638" x1="96.1465" y1="55.1849" x2="204.194" y2="55.1849" gradientUnits="userSpaceOnUse">
<stop stop-color="#183C56"/>
<stop offset="0.286458" stop-color="#335D7B"/>
<stop offset="1" stop-color="#082133"/>
</linearGradient>
<linearGradient id="paint9_linear_1370_62638" x1="96.1465" y1="48.6062" x2="204.194" y2="48.6062" gradientUnits="userSpaceOnUse">
<stop stop-color="#183C56"/>
<stop offset="0.286458" stop-color="#335D7B"/>
<stop offset="1" stop-color="#082133"/>
</linearGradient>
<linearGradient id="paint10_linear_1370_62638" x1="93.2656" y1="42.8475" x2="207.076" y2="42.8475" gradientUnits="userSpaceOnUse">
<stop stop-color="#B4C5CD"/>
<stop offset="0.718232" stop-color="#6C8A98"/>
<stop offset="1" stop-color="#6B8692"/>
</linearGradient>
<linearGradient id="paint11_linear_1370_62638" x1="188.622" y1="28.1753" x2="138.583" y2="82.3613" gradientUnits="userSpaceOnUse">
<stop stop-color="#B9CAD2"/>
<stop offset="1" stop-color="#DBE6EB"/>
</linearGradient>
<radialGradient id="paint12_radial_1370_62638" cx="0" cy="0" r="1" gradientUnits="userSpaceOnUse" gradientTransform="translate(109.714 62.1071) rotate(-34.7432) scale(49.637 134.361)">
<stop stop-color="white"/>
<stop offset="1" stop-color="white" stop-opacity="0"/>
</radialGradient>
</defs>
</svg>
